<svg xmlns="http://www.w3.org/2000/svg" xmlns:xlink="http://www.w3.org/1999/xlink" viewBox="0,0,256,256" width="200px" height="200px"><g fill="none" fill-rule="nonzero" stroke="none" stroke-width="1" stroke-linecap="butt" stroke-linejoin="miter" stroke-miterlimit="10" stroke-dasharray="" stroke-dashoffset="0" font-family="none" font-weight="none" font-size="none" text-anchor="none" style="mix-blend-mode: normal"><g transform="scale(2.56,2.56)"><path d="M87.215,56.71c1.135,-2.155 1.785,-4.605 1.785,-7.21c0,-6.621 -4.159,-12.257 -10.001,-14.478c0,-0.007 0.001,-0.014 0.001,-0.022c0,-11.598 -9.402,-21 -21,-21c-9.784,0 -17.981,6.701 -20.313,15.757c-1.476,-0.485 -3.049,-0.757 -4.687,-0.757c-7.692,0 -14.023,5.793 -14.89,13.252c-5.204,1.101 -9.11,5.717 -9.11,11.248c0,6.351 5.149,11.5 11.5,11.5c0.177,0 0.352,-0.012 0.526,-0.022c-0.004,0.175 -0.026,0.346 -0.026,0.522c0,11.322 9.178,20.5 20.5,20.5c6.437,0 12.175,-2.972 15.934,-7.614c2.178,2.225 5.206,3.614 8.566,3.614c4.65,0 8.674,-2.65 10.666,-6.518c1.052,0.335 2.171,0.518 3.334,0.518c6.075,0 11,-4.925 11,-11c0,-3.311 -1.47,-6.273 -3.785,-8.29z" fill="#4ec9b0"></path><path d="M73.5,28h-10c-0.276,0 -0.5,-0.224 -0.5,-0.5c0,-0.276 0.224,-0.5 0.5,-0.5h10c0.276,0 0.5,0.224 0.5,0.5c0,0.276 -0.223,0.5 -0.5,0.5z" fill="#ffffff"></path><path d="M76.5,28h-1c-0.276,0 -0.5,-0.224 -0.5,-0.5c0,-0.276 0.224,-0.5 0.5,-0.5h1c0.276,0 0.5,0.224 0.5,0.5c0,0.276 -0.223,0.5 -0.5,0.5z" fill="#ffffff"></path><path d="M81.491,30h-8.991c-0.276,0 -0.5,-0.224 -0.5,-0.5c0,-0.276 0.224,-0.5 0.5,-0.5h8.991c0.276,0 0.5,0.224 0.5,0.5c0,0.276 -0.224,0.5 -0.5,0.5z" fill="#ffffff"></path><path d="M70.5,30h-1c-0.276,0 -0.5,-0.224 -0.5,-0.5c0,-0.276 0.224,-0.5 0.5,-0.5h1c0.276,0 0.5,0.224 0.5,0.5c0,0.276 -0.223,0.5 -0.5,0.5z" fill="#ffffff"></path><path d="M67.5,30h-2c-0.276,0 -0.5,-0.224 -0.5,-0.5c0,-0.276 0.224,-0.5 0.5,-0.5h2c0.276,0 0.5,0.224 0.5,0.5c0,0.276 -0.223,0.5 -0.5,0.5z" fill="#ffffff"></path><path d="M73.5,32h-2c-0.276,0 -0.5,-0.224 -0.5,-0.5c0,-0.276 0.224,-0.5 0.5,-0.5h2c0.276,0 0.5,0.224 0.5,0.5c0,0.276 -0.224,0.5 -0.5,0.5z" fill="#ffffff"></path><path d="M76.5,23c-0.177,0 -0.823,0 -1,0c-0.276,0 -0.5,0.224 -0.5,0.5c0,0.276 0.224,0.5 0.5,0.5c0.177,0 0.823,0 1,0c0.276,0 0.5,-0.224 0.5,-0.5c0,-0.276 -0.224,-0.5 -0.5,-0.5z" fill="#ffffff"></path><path d="M76.5,25c-0.177,0 -4.823,0 -5,0c-0.276,0 -0.5,0.224 -0.5,0.5c0,0.276 0.224,0.5 0.5,0.5c0.177,0 4.823,0 5,0c0.276,0 0.5,-0.224 0.5,-0.5c0,-0.276 -0.224,-0.5 -0.5,-0.5z" fill="#ffffff"></path><path d="M81.5,27c-0.177,0 -2.823,0 -3,0c-0.276,0 -0.5,0.224 -0.5,0.5c0,0.276 0.224,0.5 0.5,0.5c0.177,0 2.823,0 3,0c0.276,0 0.5,-0.224 0.5,-0.5c0,-0.276 -0.224,-0.5 -0.5,-0.5z" fill="#ffffff"></path><path d="M33.5,76h-10c-0.276,0 -0.5,-0.224 -0.5,-0.5c0,-0.276 0.224,-0.5 0.5,-0.5h10c0.276,0 0.5,0.224 0.5,0.5c0,0.276 -0.224,0.5 -0.5,0.5z" fill="#ffffff"></path><path d="M37.5,76h-2c-0.276,0 -0.5,-0.224 -0.5,-0.5c0,-0.276 0.224,-0.5 0.5,-0.5h2c0.276,0 0.5,0.224 0.5,0.5c0,0.276 -0.224,0.5 -0.5,0.5z" fill="#ffffff"></path><path d="M42.5,78h-10c-0.276,0 -0.5,-0.224 -0.5,-0.5c0,-0.276 0.224,-0.5 0.5,-0.5h10c0.276,0 0.5,0.224 0.5,0.5c0,0.276 -0.223,0.5 -0.5,0.5z" fill="#ffffff"></path><path d="M30.5,78h-1c-0.276,0 -0.5,-0.224 -0.5,-0.5c0,-0.276 0.224,-0.5 0.5,-0.5h1c0.276,0 0.5,0.224 0.5,0.5c0,0.276 -0.224,0.5 -0.5,0.5z" fill="#ffffff"></path><path d="M27.47,78h-1.97c-0.276,0 -0.5,-0.224 -0.5,-0.5c0,-0.276 0.224,-0.5 0.5,-0.5h1.97c0.276,0 0.5,0.224 0.5,0.5c0,0.276 -0.224,0.5 -0.5,0.5z" fill="#ffffff"></path><path d="M36.5,74h-5c-0.276,0 -0.5,-0.224 -0.5,-0.5c0,-0.276 0.224,-0.5 0.5,-0.5h5c0.276,0 0.5,0.224 0.5,0.5c0,0.276 -0.223,0.5 -0.5,0.5z" fill="#ffffff"></path><path d="M33.5,80h-2c-0.276,0 -0.5,-0.224 -0.5,-0.5c0,-0.276 0.224,-0.5 0.5,-0.5h2c0.276,0 0.5,0.224 0.5,0.5c0,0.276 -0.224,0.5 -0.5,0.5z" fill="#ffffff"></path><g><path d="M28.5,40.5v0.5h3v-0.5c0,0 4.242,0 5.5,0c2.485,0 4.5,-2.015 4.5,-4.5c0,-2.333 -1.782,-4.229 -4.055,-4.455c0.022,-0.181 0.055,-0.358 0.055,-0.545c0,-2.485 -2.015,-4.5 -4.5,-4.5c-1.438,0 -2.703,0.686 -3.527,1.736c-0.14,-2.636 -2.302,-4.736 -4.973,-4.736c-2.761,0 -5,2.239 -5,5c0,0.446 0.077,0.87 0.187,1.282c-0.642,-0.777 -1.601,-1.282 -2.687,-1.282c-1.781,0 -3.234,1.335 -3.455,3.055c-0.181,-0.022 -0.358,-0.055 -0.545,-0.055c-2.485,0 -4.5,2.015 -4.5,4.5c0,2.485 2.015,4.5 4.5,4.5c2.485,0 9.5,0 9.5,0z" fill="#fdfcef"></path><path d="M24.5,23c-3.033,0 -5.5,2.467 -5.5,5.5c0,0.016 0,0.031 0,0.047c-0.602,-0.355 -1.29,-0.547 -2,-0.547c-1.831,0 -3.411,1.261 -3.858,3.005c-0.047,-0.003 -0.094,-0.005 -0.142,-0.005c-2.757,0 -5,2.243 -5,5c0,2.757 2.243,5 5,5h15.5c0.276,0 0.5,-0.224 0.5,-0.5c0,-0.276 -0.224,-0.5 -0.5,-0.5h-15.5c-2.206,0 -4,-1.794 -4,-4c0,-2.206 1.794,-4 4,-4c0.117,0 0.23,0.017 0.343,0.032l0.141,0.019c0.021,0.003 0.041,0.004 0.062,0.004c0.246,0 0.462,-0.185 0.495,-0.437c0.191,-1.493 1.463,-2.618 2.959,-2.618c0.885,0 1.723,0.401 2.301,1.1c0.098,0.118 0.241,0.182 0.386,0.182c0.078,0 0.156,-0.018 0.228,-0.056c0.209,-0.107 0.314,-0.346 0.254,-0.573c-0.115,-0.435 -0.169,-0.801 -0.169,-1.153c0,-2.481 2.019,-4.5 4.5,-4.5c2.381,0 4.347,1.872 4.474,4.263c0.011,0.208 0.15,0.387 0.349,0.45c0.05,0.016 0.101,0.024 0.152,0.024c0.15,0 0.296,-0.069 0.392,-0.192c0.771,-0.982 1.912,-1.545 3.133,-1.545c2.206,0 4,1.794 4,4c0,0.117 -0.017,0.23 -0.032,0.343l-0.019,0.141c-0.016,0.134 0.022,0.268 0.106,0.373c0.084,0.105 0.207,0.172 0.34,0.185c2.056,0.205 3.605,1.907 3.605,3.958c0,2.206 -1.794,4 -4,4h-5.5c-0.276,0 -0.5,0.224 -0.5,0.5c0,0.276 0.224,0.5 0.5,0.5h5.5c2.757,0 5,-2.243 5,-5c0,-2.397 -1.689,-4.413 -4.003,-4.877c0.002,-0.041 0.003,-0.082 0.003,-0.123c0,-2.757 -2.243,-5 -5,-5c-1.176,0 -2.293,0.416 -3.183,1.164c-0.598,-2.404 -2.762,-4.164 -5.317,-4.164z" fill="#472b29"></path><path d="M23,30c-1.403,0 -2.609,0.999 -2.913,2.341c-0.367,-0.222 -0.786,-0.341 -1.212,-0.341c-1.202,0 -2.198,0.897 -2.353,2.068c-0.203,-0.046 -0.396,-0.068 -0.585,-0.068c-1.529,0 -2.811,1.2 -2.918,2.732c-0.009,0.138 0.095,0.258 0.232,0.268c0.006,0 0.012,0 0.018,0c0.13,0 0.24,-0.101 0.249,-0.232c0.089,-1.271 1.151,-2.268 2.419,-2.268c0.229,0 0.47,0.042 0.738,0.127c0.022,0.007 0.045,0.01 0.067,0.01c0.055,0 0.11,-0.02 0.156,-0.054c0.064,-0.046 0.102,-0.128 0.102,-0.208c0,-1.034 0.841,-1.875 1.875,-1.875c0.447,0 0.885,0.168 1.231,0.473c0.047,0.041 0.106,0.063 0.165,0.063c0.032,0 0.063,-0.006 0.093,-0.019c0.088,-0.035 0.148,-0.117 0.155,-0.212c0.104,-1.293 1.193,-2.305 2.481,-2.305c0.208,0 0.425,0.034 0.682,0.107c0.023,0.007 0.047,0.01 0.07,0.01c0.109,0 0.207,-0.073 0.239,-0.182c0.038,-0.133 -0.039,-0.271 -0.172,-0.309c-0.302,-0.086 -0.563,-0.126 -0.819,-0.126z" fill="#472b29"></path><path d="M36.883,31.5c-1.326,0 -2.508,0.897 -2.874,2.182c-0.038,0.133 0.039,0.271 0.172,0.309c0.024,0.006 0.047,0.009 0.069,0.009c0.109,0 0.209,-0.072 0.24,-0.182c0.305,-1.07 1.289,-1.818 2.393,-1.818c0.117,0 0.23,0.014 0.342,0.029c0.012,0.002 0.023,0.003 0.035,0.003c0.121,0 0.229,-0.092 0.246,-0.217c0.019,-0.137 -0.077,-0.263 -0.214,-0.281c-0.134,-0.018 -0.27,-0.034 -0.409,-0.034z" fill="#472b29"></path></g><g><path d="M81.5,54.5c0,0 1.567,0 3.5,0c1.933,0 3.5,-1.567 3.5,-3.5c0,-1.781 -1.335,-3.234 -3.055,-3.455c0.028,-0.179 0.055,-0.358 0.055,-0.545c0,-1.933 -1.567,-3.5 -3.5,-3.5c-1.032,0 -1.95,0.455 -2.59,1.165c-0.384,-1.808 -1.987,-3.165 -3.91,-3.165c-2.209,0 -4,1.791 -4,4c0,0.191 0.03,0.374 0.056,0.558c-0.428,-0.344 -0.964,-0.558 -1.556,-0.558c-1.228,0 -2.245,0.887 -2.455,2.055c-0.179,-0.028 -0.358,-0.055 -0.545,-0.055c-1.933,0 -3.5,1.567 -3.5,3.5c0,1.933 1.567,3.5 3.5,3.5c1.933,0 7.5,0 7.5,0v0.5h7z" fill="#fdfcef"></path><path d="M83.25,50c-0.138,0 -0.25,-0.112 -0.25,-0.25c0,-1.223 0.995,-2.218 2.218,-2.218c0.034,0.009 0.737,-0.001 1.244,0.136c0.133,0.036 0.212,0.173 0.176,0.306c-0.036,0.134 -0.173,0.213 -0.306,0.176c-0.444,-0.12 -1.1,-0.12 -1.113,-0.118c-0.948,0 -1.719,0.771 -1.719,1.718c0,0.138 -0.112,0.25 -0.25,0.25z" fill="#472b29"></path><circle cx="76.5" cy="54.5" r="0.5" fill="#472b29"></circle><path d="M85,55h-3.5c-0.276,0 -0.5,-0.224 -0.5,-0.5c0,-0.276 0.224,-0.5 0.5,-0.5h3.5c1.654,0 3,-1.346 3,-3c0,-1.496 -1.125,-2.768 -2.618,-2.959c-0.134,-0.018 -0.255,-0.088 -0.336,-0.196c-0.081,-0.108 -0.115,-0.244 -0.094,-0.377c0.023,-0.154 0.048,-0.308 0.048,-0.468c0,-1.654 -1.346,-3 -3,-3c-0.85,0 -1.638,0.355 -2.219,1c-0.125,0.139 -0.321,0.198 -0.5,0.148c-0.182,-0.049 -0.321,-0.195 -0.36,-0.379c-0.341,-1.604 -1.78,-2.769 -3.421,-2.769c-1.93,0 -3.5,1.57 -3.5,3.5c0,0.143 0.021,0.28 0.041,0.418c0.029,0.203 -0.063,0.438 -0.242,0.54c-0.179,0.102 -0.396,0.118 -0.556,-0.01c-0.365,-0.293 -0.794,-0.448 -1.243,-0.448c-0.966,0 -1.792,0.691 -1.963,1.644c-0.048,0.267 -0.296,0.446 -0.569,0.405c-0.154,-0.024 -0.308,-0.049 -0.468,-0.049c-1.654,0 -3,1.346 -3,3c0,1.654 1.346,3 3,3h7.5c0.276,0 0.5,0.224 0.5,0.5c0,0.276 -0.224,0.5 -0.5,0.5h-7.5c-2.206,0 -4,-1.794 -4,-4c0,-2.206 1.794,-4 4,-4c0.059,0 0.116,0.002 0.174,0.006c0.414,-1.186 1.537,-2.006 2.826,-2.006c0.349,0 0.689,0.061 1.011,0.18c0.165,-2.333 2.115,-4.18 4.489,-4.18c1.831,0 3.466,1.127 4.153,2.774c0.68,-0.498 1.502,-0.774 2.347,-0.774c2.206,0 4,1.794 4,4c0,0.048 -0.001,0.095 -0.004,0.142c1.743,0.448 3.004,2.027 3.004,3.858c0,2.206 -1.794,4 -4,4z" fill="#472b29"></path><path d="M79.5,54c-0.159,0 -0.841,0 -1,0c-0.276,0 -0.5,0.224 -0.5,0.5c0,0.276 0.224,0.5 0.5,0.5c0.159,0 0.841,0 1,0c0.276,0 0.5,-0.224 0.5,-0.5c0,-0.276 -0.224,-0.5 -0.5,-0.5z" fill="#472b29"></path></g><g><path d="M51.5,73.3c-1.647,0 -3.245,-0.332 -4.747,-0.986l-18.373,-8.006c-0.417,-0.181 -0.668,-0.55 -0.673,-0.986l-0.003,-8.883c0.036,0.008 0.075,0.021 0.117,0.04l18.374,8.005c1.679,0.732 3.464,1.103 5.306,1.103c1.842,0 3.627,-0.371 5.306,-1.103l18.374,-8.005c0.042,-0.018 0.081,-0.031 0.117,-0.04v8.643l-0.004,0.241c-0.004,0.435 -0.256,0.804 -0.673,0.985l-18.373,8.005c-1.503,0.655 -3.101,0.987 -4.748,0.987z" fill="#8889b9"></path><path d="M28.403,55.496l17.511,7.629c1.768,0.771 3.647,1.162 5.586,1.162c1.939,0 3.818,-0.391 5.586,-1.161l17.511,-7.63v7.561l-0.003,0.257c-0.002,0.162 -0.087,0.28 -0.253,0.353l-18.374,8.005c-1.413,0.616 -2.916,0.928 -4.467,0.928c-1.551,0 -3.054,-0.313 -4.467,-0.928l-18.374,-8.005c-0.166,-0.072 -0.251,-0.191 -0.253,-0.353l-0.003,-0.216v-7.602M75.373,53.729c-0.136,0 -0.294,0.029 -0.473,0.107l-18.374,8.005c-1.598,0.697 -3.312,1.045 -5.026,1.045c-1.714,0 -3.428,-0.348 -5.026,-1.045l-18.374,-8.004c-0.179,-0.078 -0.337,-0.107 -0.473,-0.107c-0.413,0 -0.624,0.271 -0.624,0.271v9.331h0.003c0.008,0.654 0.37,1.305 1.094,1.62l18.374,8.005c1.598,0.695 3.312,1.043 5.026,1.043c1.714,0 3.428,-0.348 5.026,-1.044l18.374,-8.006c0.724,-0.315 1.086,-0.966 1.094,-1.62h0.003v-9.33c0,0 -0.211,-0.271 -0.624,-0.271z" fill="#472b29"></path></g><g fill="#472b29"><path d="M68.326,64.7c-0.095,0 -0.185,-0.054 -0.227,-0.145c-0.059,-0.125 -0.004,-0.274 0.122,-0.332l4.47,-2.063c0.123,-0.058 0.272,-0.003 0.331,0.122c0.059,0.125 0.004,0.274 -0.122,0.332l-4.47,2.063c-0.033,0.015 -0.069,0.023 -0.104,0.023z"></path></g><g fill="#472b29"><path d="M51.5,71.249c-1.75,0 -3.5,-0.376 -5.131,-1.129c-0.125,-0.058 -0.18,-0.206 -0.122,-0.332c0.058,-0.126 0.207,-0.18 0.332,-0.122c3.127,1.443 6.714,1.443 9.843,0l9.068,-4.184c0.122,-0.058 0.272,-0.003 0.331,0.122c0.059,0.125 0.004,0.274 -0.122,0.332l-9.068,4.184c-1.63,0.753 -3.381,1.129 -5.131,1.129z"></path></g><g fill="#472b29"><path d="M43.453,68.75c-0.035,0 -0.071,-0.007 -0.105,-0.023l-8.456,-3.901c-0.125,-0.058 -0.18,-0.206 -0.122,-0.332c0.059,-0.125 0.206,-0.18 0.332,-0.122l8.456,3.901c0.125,0.058 0.18,0.206 0.122,0.332c-0.042,0.091 -0.133,0.145 -0.227,0.145z"></path></g><g fill="#472b29"><path d="M32.785,63.828c-0.035,0 -0.071,-0.007 -0.105,-0.023l-2.898,-1.337c-0.125,-0.058 -0.18,-0.206 -0.123,-0.332c0.059,-0.125 0.207,-0.18 0.332,-0.122l2.898,1.337c0.125,0.058 0.18,0.206 0.123,0.332c-0.043,0.091 -0.133,0.145 -0.227,0.145z"></path></g><g><path d="M51.5,63.942c-1.648,0 -3.246,-0.331 -4.747,-0.985l-18.374,-7.996c-0.426,-0.185 -0.68,-0.559 -0.679,-0.998c0,-0.44 0.255,-0.812 0.681,-0.997l16.146,-6.99c1.471,-0.637 3.069,-1.068 4.75,-1.281l4.533,0.005c1.593,0.208 3.191,0.639 4.662,1.276l16.146,6.99c0.427,0.185 0.682,0.557 0.682,0.997c0.001,0.44 -0.253,0.813 -0.679,0.998l-18.374,7.996c-1.501,0.653 -3.099,0.985 -4.747,0.985z" fill="#8889b9"></path><path d="M53.721,45.4c1.584,0.209 3.089,0.618 4.474,1.218l16.146,6.99c0.214,0.093 0.26,0.245 0.26,0.355c0,0.111 -0.045,0.262 -0.259,0.355l-18.374,7.997c-1.413,0.615 -2.916,0.926 -4.468,0.926c-1.552,0 -3.055,-0.312 -4.468,-0.926l-18.374,-7.997c-0.214,-0.093 -0.259,-0.245 -0.259,-0.355c0,-0.111 0.045,-0.263 0.26,-0.355l16.145,-6.99c1.385,-0.6 2.89,-1.009 4.474,-1.218h4.443M53.811,44h-4.622c-1.689,0.214 -3.355,0.647 -4.94,1.333l-16.146,6.99c-1.47,0.636 -1.472,2.64 -0.003,3.279l18.374,7.997c1.597,0.695 3.312,1.042 5.026,1.042c1.714,0 3.429,-0.348 5.026,-1.042l18.374,-7.996c1.468,-0.639 1.466,-2.643 -0.003,-3.279l-16.146,-6.99c-1.585,-0.687 -3.251,-1.12 -4.94,-1.334z" fill="#472b29"></path></g><g fill="#472b29"><path d="M57,60.099c-0.096,0 -0.187,-0.055 -0.229,-0.148c-0.056,-0.126 0.001,-0.274 0.127,-0.33l4,-1.782c0.127,-0.056 0.272,0 0.33,0.127c0.056,0.126 -0.001,0.274 -0.127,0.33l-4,1.782c-0.033,0.014 -0.067,0.021 -0.101,0.021zM63.196,57.338c-0.096,0 -0.187,-0.055 -0.229,-0.148c-0.056,-0.126 0.001,-0.274 0.127,-0.33l6.868,-3.061l0.101,-0.301l-0.102,0.229l-2.035,-0.902c-0.126,-0.056 -0.183,-0.204 -0.127,-0.33c0.056,-0.127 0.204,-0.183 0.33,-0.127l2.035,0.902c0.197,0.088 0.32,0.277 0.32,0.494c0,0.216 -0.122,0.405 -0.319,0.493l-6.868,3.061c-0.032,0.012 -0.067,0.02 -0.101,0.02zM66.511,52.172c-0.034,0 -0.068,-0.007 -0.102,-0.021l-3.783,-1.677c-0.126,-0.056 -0.183,-0.204 -0.127,-0.33c0.056,-0.127 0.203,-0.183 0.33,-0.127l3.783,1.677c0.126,0.056 0.183,0.204 0.127,0.33c-0.041,0.092 -0.133,0.148 -0.228,0.148zM61.161,49.8c-0.034,0 -0.068,-0.007 -0.102,-0.021l-2.348,-1.041c-0.126,-0.056 -0.183,-0.204 -0.127,-0.33c0.056,-0.127 0.204,-0.183 0.33,-0.127l2.348,1.041c0.126,0.056 0.183,0.204 0.127,0.33c-0.04,0.093 -0.132,0.148 -0.228,0.148z"></path></g><g><ellipse cx="37.25" cy="54" rx="2.75" ry="1.5" fill="#f4989e"></ellipse><path d="M37.25,56c-1.853,0 -3.25,-0.86 -3.25,-2c0,-1.14 1.397,-2 3.25,-2c1.853,0 3.25,0.86 3.25,2c0,1.14 -1.397,2 -3.25,2zM37.25,53c-1.374,0 -2.25,0.592 -2.25,1c0,0.408 0.876,1 2.25,1c1.374,0 2.25,-0.592 2.25,-1c0,-0.408 -0.876,-1 -2.25,-1z" fill="#472b29"></path></g><g><path d="M51.5,56.3c-1.544,0 -2.8,-1.256 -2.8,-2.8v-15.3h5.6v15.3c0,1.544 -1.256,2.8 -2.8,2.8z" fill="#edf7f5"></path><path d="M53.6,38.9v14.6c0,1.158 -0.942,2.1 -2.1,2.1c-1.158,0 -2.1,-0.942 -2.1,-2.1v-14.6h4.2M55,37.5h-7v16c0,1.933 1.567,3.5 3.5,3.5c1.933,0 3.5,-1.567 3.5,-3.5v-16z" fill="#472b29"></path></g><g><circle cx="51.5" cy="34.5" r="6.8" fill="#ee3e54"></circle><path d="M51.5,28.4c3.364,0 6.1,2.736 6.1,6.1c0,3.364 -2.736,6.1 -6.1,6.1c-3.364,0 -6.1,-2.736 -6.1,-6.1c0,-3.364 2.736,-6.1 6.1,-6.1M51.5,27c-4.142,0 -7.5,3.358 -7.5,7.5c0,4.142 3.358,7.5 7.5,7.5c4.142,0 7.5,-3.358 7.5,-7.5c0,-4.142 -3.358,-7.5 -7.5,-7.5z" fill="#472b29"></path></g><g fill="#472b29"><path d="M54.359,37.547c-0.063,0 -0.126,-0.024 -0.175,-0.071c-0.099,-0.097 -0.101,-0.255 -0.004,-0.354c0.689,-0.704 1.069,-1.635 1.069,-2.622c0,-0.845 -0.274,-1.643 -0.793,-2.306c-0.085,-0.109 -0.065,-0.266 0.043,-0.351c0.108,-0.085 0.265,-0.066 0.352,0.043c0.588,0.752 0.898,1.656 0.898,2.614c0,1.118 -0.431,2.174 -1.212,2.972c-0.048,0.05 -0.113,0.075 -0.178,0.075z"></path></g><g fill="#472b29"><path d="M49.607,31.225c-0.089,0 -0.175,-0.048 -0.22,-0.131c-0.065,-0.122 -0.02,-0.273 0.102,-0.339c1.048,-0.564 2.338,-0.657 3.454,-0.254c0.13,0.047 0.197,0.19 0.15,0.32c-0.047,0.13 -0.188,0.197 -0.32,0.15c-0.984,-0.355 -2.123,-0.273 -3.047,0.224c-0.038,0.021 -0.079,0.03 -0.119,0.03z"></path></g></g></g></svg>